<svg xmlns="http://www.w3.org/2000/svg" width="289.715" height="58.163" viewBox="0 0 289.715 58.163"><g transform="translate(-5684.285 4630.583)"><text transform="translate(5752 -4618.167)" fill="#fff" font-size="30" font-family="Inter" font-weight="700" letter-spacing="0.03em"><tspan x="0" y="29">E-ŽURNALAS</tspan></text><g transform="translate(5625.663 -4718.982)"><path d="M62.243,88.445a11.42,11.42,0,0,1,1.442-.044q22.719,0,45.435,0a4.247,4.247,0,0,1,4.17,4.059q.011,24.517,0,49.033a6.139,6.139,0,0,1-.205,2.137,4.252,4.252,0,0,1-3.978,2.921q-22.557,0-45.114,0a6.281,6.281,0,0,1-2.875-.378,4.264,4.264,0,0,1-2.49-3.77q-.007-24.533,0-49.065a5.858,5.858,0,0,1,.2-1.97,4.274,4.274,0,0,1,3.418-2.927m7.007,19.46c0,.567,0,1.132,0,1.7q9.77-5.418,19.522-10.868,6.959,5.411,13.882,10.865c.02-.571.017-1.144.011-1.716-4.644-3.82-9.255-7.679-13.9-11.5-6.5,3.855-13.018,7.679-19.522,11.525m0,4.039c-.006.577,0,1.154,0,1.733,6.527-3.146,13.071-6.26,19.6-9.395,0-.785,0-1.572,0-2.359q-9.8,5.022-19.6,10.021m0,4.17q0,.859,0,1.721,9.8-3.908,19.6-7.8c0-.79,0-1.58,0-2.368q-9.8,4.236-19.6,8.45m18.968-2.632c-6.321,2.244-12.65,4.463-18.972,6.7q0,.852,0,1.706,9.857-3.151,19.712-6.3c4.542,1.653,9.073,3.34,13.621,4.981,0-.562.012-1.123-.021-1.683q-6.722-2.777-13.449-5.535c-.3-.169-.6.055-.892.132M69.244,124.447q0,.85,0,1.7c6.482-1.514,12.954-3.065,19.43-4.6a.8.8,0,0,1,.474-.006c4.472,1.179,8.929,2.412,13.41,3.554a13.063,13.063,0,0,0,0-1.654c-4.578-1.437-9.163-2.85-13.741-4.281q-9.784,2.643-19.569,5.286m0,4.074c0,.565,0,1.13,0,1.7q9.8-1.559,19.607-3.111c0-.79.009-1.581,0-2.371-6.529,1.29-13.073,2.5-19.6,3.785m0,4.147q0,.845,0,1.691c6.538-.459,13.068-1.028,19.6-1.508.006-.79,0-1.578,0-2.367q-9.8,1.1-19.606,2.184m0,4.063q.007.845,0,1.688,16.713.014,33.426,0c0-.562,0-1.126,0-1.688-4.638-.2-9.273-.457-13.913-.638C82.253,136.283,75.751,136.532,69.249,136.731Z" transform="translate(0 0)" fill="#fff"/></g></g></svg>