<svg xmlns="http://www.w3.org/2000/svg" width="287.431" height="55.493" viewBox="0 0 287.431 55.493">
  <g id="Group_270" data-name="Group 270" transform="translate(-5686.569 4627.913)">
    <g id="_3d84a8ff" data-name="#3d84a8ff" transform="translate(5686.569 -4627.913)">
      <path id="Path_408" data-name="Path 408" d="M121.057,176.79a10.418,10.418,0,0,1,1.136-.029h43.333A3.931,3.931,0,0,1,168.434,178a4,4,0,0,1,1.167,2.908v45.506c-.012.678.023,1.356-.019,2.033a4.048,4.048,0,0,1-1.051,2.493,4.092,4.092,0,0,1-3.222,1.309q-21.957,0-43.913,0a4.073,4.073,0,0,1-3.766-2.8,6.607,6.607,0,0,1-.183-2.159q0-23.26,0-46.52a3.969,3.969,0,0,1,.817-2.409,4.055,4.055,0,0,1,2.795-1.564m24.3,8.085q-7.565,4.463-15.13,8.923c-.878.536-1.788,1.022-2.648,1.587.009.526-.012,1.052.012,1.578,1.16-.585,2.273-1.258,3.415-1.877q7.427-4.135,14.853-8.271c.123-.055.242-.16.383-.147a5.4,5.4,0,0,1,.52.389q6.011,4.712,12.024,9.421a4.061,4.061,0,0,0,.661.47c.015-.493.022-.986.006-1.479.006-.1-.095-.162-.154-.228q-6.538-5.414-13.07-10.837a5.456,5.456,0,0,0-.872.471m-1.647,6.1c-5.381,2.744-10.75,5.511-16.136,8.246.009.543-.01,1.085.012,1.628,3.712-1.761,7.411-3.55,11.121-5.314,2.52-1.224,5.061-2.406,7.576-3.641-.017-.74-.005-1.48-.007-2.22-.868.407-1.708.875-2.567,1.3m1.769,4.511c-5.845,2.509-11.679,5.043-17.523,7.555a1.3,1.3,0,0,0-.37.183c-.023.533-.009,1.07,0,1.6q9.35-3.713,18.7-7.44c-.009-.738-.007-1.477,0-2.216a3.748,3.748,0,0,0-.8.314m-17.9,11.576c-.009.544-.014,1.089,0,1.633q7.363-2.341,14.718-4.7c1.329-.405,2.639-.867,3.975-1.251-.007-.754,0-1.509,0-2.262-6.233,2.188-12.457,4.406-18.694,6.584m15.17-.012q-6.969,1.877-13.935,3.764c-.409.1-.809.247-1.228.31-.025.547-.014,1.095-.007,1.643,2.469-.557,4.924-1.175,7.392-1.741,2.866-.689,5.736-1.356,8.6-2.05.9-.188,1.788-.443,2.694-.6.015-.752,0-1.5.011-2.256-1.188.26-2.349.634-3.528.932m-.648,5.192c-4.845.917-9.685,1.859-14.528,2.785,0,.54-.011,1.08.009,1.62,6.153-.97,12.3-1.964,18.456-2.923.079-.029.246-.019.228-.145.015-.712,0-1.424,0-2.136-1.388.268-2.782.51-4.166.8m3.695,4.719c-1.785.223-3.576.4-5.364.6-4.287.489-8.577.955-12.863,1.442.012.534-.008,1.069.013,1.6,1.888-.105,3.769-.282,5.654-.421,4.347-.364,8.7-.662,13.044-1.038-.014-.738-.011-1.477,0-2.216-.161.007-.322.012-.482.028m-4.19,5.44c-.964.063-1.933.036-2.9.106-.7.028-1.4,0-2.1.072-.749.039-1.5,0-2.247.076-.724.038-1.451-.007-2.173.074-.749.041-1.5,0-2.246.076-.787.019-1.575.024-2.359.087-.005.532-.007,1.064,0,1.6q7.265.011,14.531,0c5.78,0,11.56.009,17.339-.007.008-.528,0-1.056,0-1.583a5.7,5.7,0,0,0-.751-.072c-.775,0-1.545-.088-2.319-.093-.64-.088-1.288-.032-1.929-.108-.551-.041-1.105-.011-1.654-.078-2.115-.083-4.23-.187-6.345-.285C144.848,222.273,143.232,222.378,141.614,222.405Z" transform="translate(-117.443 -176.759)" fill="#fff"/>
    </g>
    <text id="E-ŽURNALAS" transform="translate(5752 -4618.167)" fill="#fff" font-size="30" font-family="Inter" font-weight="700" letter-spacing="0.03em"><tspan x="0" y="29">E-ŽURNALAS</tspan></text>
  </g>
</svg>
